<svg id="svg" version="1.1" width="512" height="512" xmlns="http://www.w3.org/2000/svg"><path d="M266.370 10.663 C 266.722 16.623,267.294 28.149,267.641 36.275 C 268.249 50.490,269.230 54.917,270.579 49.541 C 270.930 48.143,271.669 47.000,272.222 47.000 C 272.839 47.000,272.946 45.744,272.499 43.750 C 272.099 41.962,271.485 31.500,271.136 20.500 L 270.500 0.500 268.115 0.163 L 265.730 -0.174 266.370 10.663 M265.500 53.669 C 256.869 54.508,250.988 56.153,249.997 58.006 C 248.888 60.077,248.804 84.074,249.892 88.000 C 251.158 92.570,257.869 94.873,270.114 94.941 C 283.380 95.015,290.924 93.693,293.250 90.889 C 294.709 89.129,295.000 86.716,295.000 76.357 C 295.000 59.493,294.248 57.795,285.864 55.741 C 278.270 53.880,270.970 53.137,265.500 53.669 M263.232 59.123 C 261.191 59.713,258.845 61.611,256.982 64.183 L 254.000 68.300 254.000 65.272 C 254.000 63.607,254.563 61.800,255.250 61.257 C 257.013 59.863,262.128 58.156,264.500 58.169 C 265.626 58.175,265.072 58.593,263.232 59.123 M290.703 68.099 C 293.186 81.307,292.001 90.000,287.716 90.000 C 282.897 90.000,282.044 88.244,281.358 76.913 C 281.005 71.091,281.020 64.707,281.391 62.727 L 282.067 59.128 285.783 60.413 C 289.335 61.640,289.553 61.982,290.703 68.099 M275.418 60.607 C 276.288 60.941,277.000 62.066,277.000 63.107 C 277.000 65.572,276.590 65.499,273.591 62.500 C 271.137 60.046,271.899 59.257,275.418 60.607 M269.930 71.309 C 269.891 75.264,269.473 79.400,269.000 80.500 C 268.438 81.807,268.116 79.102,268.070 72.691 C 268.025 66.389,268.358 63.103,269.000 63.500 C 269.550 63.840,269.968 67.354,269.930 71.309 M264.969 71.500 C 264.969 73.700,264.533 76.175,264.000 77.000 C 263.324 78.047,263.031 76.384,263.031 71.500 C 263.031 66.616,263.324 64.953,264.000 66.000 C 264.533 66.825,264.969 69.300,264.969 71.500 M263.838 87.758 C 265.852 88.628,270.200 89.894,273.500 90.572 C 279.069 91.715,279.212 91.810,275.500 91.893 C 267.069 92.082,261.177 90.793,257.879 88.040 C 255.651 86.180,254.854 84.822,255.304 83.651 C 255.893 82.114,256.153 82.153,258.065 84.065 C 259.226 85.226,261.823 86.887,263.838 87.758 M275.786 84.195 C 274.985 85.403,273.692 86.589,272.914 86.832 C 272.136 87.075,272.591 86.088,273.924 84.637 C 276.873 81.429,277.763 81.218,275.786 84.195 M237.768 89.070 C 236.816 89.625,233.441 89.978,230.268 89.855 C 220.834 89.488,213.061 91.037,203.046 95.280 C 194.708 98.812,193.239 99.151,190.604 98.157 C 188.053 97.194,186.878 97.387,182.558 99.482 C 179.776 100.831,173.599 104.762,168.831 108.218 C 164.063 111.673,158.402 115.554,156.252 116.843 C 152.830 118.893,149.682 122.515,140.260 135.240 C 137.447 139.040,136.013 144.122,136.006 150.316 C 135.999 155.827,135.149 157.738,129.918 164.000 C 122.332 173.080,112.064 192.947,108.544 205.353 C 107.631 208.573,105.841 212.173,104.567 213.353 C 103.292 214.534,100.182 217.436,97.654 219.801 C 91.300 225.748,85.704 237.237,85.199 245.367 C 84.534 256.098,87.707 265.963,95.606 277.720 C 96.796 279.490,98.499 284.172,99.391 288.122 C 100.284 292.073,102.752 298.950,104.877 303.403 C 107.002 307.856,109.084 312.625,109.503 314.000 C 110.221 316.352,110.155 316.409,108.383 314.958 C 98.937 307.223,92.290 300.869,85.567 293.146 C 81.203 288.134,77.450 284.216,77.227 284.440 C 77.004 284.663,78.701 287.615,81.000 291.000 C 86.506 299.108,98.663 311.054,106.897 316.448 C 112.572 320.165,119.382 327.000,117.411 327.000 C 116.210 327.000,100.541 315.726,96.000 311.595 C 90.031 306.163,82.425 296.948,78.415 290.288 C 75.020 284.651,70.582 272.182,69.570 265.438 L 68.979 261.500 70.351 265.000 C 77.269 282.652,91.054 300.442,103.208 307.405 L 106.500 309.291 103.000 305.485 C 101.075 303.392,98.020 300.339,96.211 298.702 C 86.489 289.901,75.188 272.628,71.073 260.282 C 66.640 246.982,69.258 230.777,77.467 220.699 C 81.660 215.552,89.039 209.316,94.863 205.998 C 102.789 201.482,105.199 199.866,104.719 199.386 C 104.426 199.093,100.882 200.415,96.843 202.324 C 83.317 208.718,72.363 219.453,67.843 230.748 C 65.809 235.831,65.542 238.185,65.550 251.000 C 65.557 263.002,65.945 266.849,67.799 273.333 C 70.700 283.475,76.782 294.586,84.638 304.094 C 92.907 314.102,97.269 317.936,109.184 325.668 C 116.764 330.587,119.799 333.224,122.002 336.806 C 123.589 339.388,126.488 344.044,128.444 347.154 C 132.571 353.716,132.734 355.077,129.930 359.614 C 128.791 361.456,127.607 365.411,127.298 368.401 C 126.837 372.868,127.123 374.463,128.901 377.339 C 132.939 383.873,141.361 386.714,148.567 383.975 C 150.050 383.411,152.170 383.236,153.277 383.588 C 154.383 383.939,159.537 388.226,164.729 393.113 C 169.921 398.001,174.569 402.000,175.059 402.000 C 176.514 402.000,179.000 407.665,179.000 410.982 C 179.000 418.076,184.768 425.303,191.427 426.552 C 194.826 427.190,198.285 425.955,207.314 420.881 C 211.126 418.738,211.130 418.738,217.814 420.619 C 223.347 422.176,227.776 422.487,243.500 422.425 C 261.575 422.355,263.075 422.196,274.318 419.175 C 283.453 416.721,288.174 416.000,295.120 416.000 C 315.392 416.000,329.286 410.200,345.423 395.000 C 349.315 391.334,357.900 384.043,364.500 378.798 C 371.100 373.553,377.822 367.853,379.437 366.131 C 381.528 363.902,383.285 363.000,385.538 363.000 C 391.832 363.000,394.819 361.026,402.658 351.683 C 411.390 341.275,414.755 334.682,418.570 320.500 C 423.929 300.580,425.363 291.523,426.713 269.067 C 427.329 258.824,425.435 246.421,422.993 244.702 C 422.054 244.041,420.081 241.250,418.609 238.500 L 415.932 233.500 416.545 246.500 C 416.881 253.650,417.134 261.160,417.106 263.189 C 417.058 266.625,417.275 266.899,420.277 267.189 L 423.500 267.500 421.048 268.893 C 418.951 270.085,418.527 270.085,418.122 268.893 C 417.862 268.127,416.633 272.675,415.392 279.000 C 412.480 293.835,410.096 299.568,402.443 310.140 C 399.003 314.892,395.653 319.842,395.000 321.140 C 393.479 324.162,383.606 333.194,383.172 331.961 C 382.991 331.449,383.705 329.785,384.759 328.265 C 386.907 325.166,389.371 318.450,391.645 309.500 C 392.483 306.200,394.108 300.350,395.256 296.500 C 396.404 292.650,397.436 286.350,397.549 282.500 C 397.662 278.650,398.081 270.100,398.479 263.500 C 399.168 252.063,398.647 244.458,395.808 224.500 C 395.261 220.650,394.705 215.386,394.573 212.803 C 394.441 210.220,393.755 207.410,393.049 206.559 C 392.342 205.707,392.000 204.108,392.288 203.005 C 392.704 201.417,392.323 201.000,390.453 201.000 C 386.400 201.000,383.391 198.969,382.082 195.351 C 381.390 193.435,379.513 190.376,377.911 188.552 C 375.227 185.494,374.045 182.000,375.695 182.000 C 376.078 182.000,377.617 183.175,379.115 184.610 C 380.613 186.046,382.438 187.004,383.170 186.741 C 386.758 185.447,367.037 170.721,354.981 165.691 C 348.536 163.002,348.398 162.989,342.981 164.574 C 339.966 165.455,335.436 167.487,332.912 169.088 C 330.389 170.690,327.995 172.000,327.593 172.000 C 327.190 172.000,324.754 173.461,322.180 175.247 C 317.932 178.194,308.443 181.710,309.543 179.930 C 310.027 179.147,317.567 174.660,327.500 169.244 C 339.513 162.694,346.569 159.681,349.755 159.741 C 358.112 159.899,377.273 173.102,394.500 190.574 C 401.650 197.825,409.300 204.693,411.500 205.835 C 414.599 207.444,415.009 207.922,413.320 207.956 L 411.140 208.000 413.595 214.041 C 414.945 217.364,416.292 222.201,416.589 224.791 C 417.489 232.638,417.848 233.581,420.473 234.986 C 422.385 236.009,423.000 237.134,423.000 239.610 C 423.000 244.547,424.437 244.429,425.931 239.370 C 427.645 233.565,426.703 225.337,423.620 219.184 C 422.329 216.608,420.692 212.700,419.981 210.500 C 419.163 207.965,416.593 204.477,412.964 200.974 C 408.704 196.863,406.450 193.599,404.164 188.227 C 400.644 179.955,394.498 169.137,389.735 162.830 C 387.937 160.449,384.267 155.398,381.580 151.607 C 374.342 141.394,364.815 131.744,353.715 123.383 C 338.963 112.270,326.516 106.639,302.643 100.278 C 293.080 97.730,291.392 97.588,273.135 97.798 C 254.844 98.009,253.577 97.901,250.285 95.867 C 247.092 93.893,245.862 93.759,235.629 94.263 C 226.162 94.729,222.633 95.422,212.480 98.805 C 192.761 105.376,183.726 109.663,169.022 119.424 C 158.281 126.554,146.712 136.798,142.418 142.982 C 139.697 146.900,139.345 146.476,141.369 141.718 C 142.649 138.708,153.219 128.117,159.644 123.406 C 173.394 113.326,185.403 106.532,200.000 100.576 C 217.630 93.383,236.483 89.659,244.319 91.822 C 248.857 93.075,248.977 92.566,244.750 89.989 C 241.083 87.753,240.222 87.640,237.768 89.070 M241.945 97.425 C 243.726 98.411,244.999 98.502,246.631 97.758 C 247.864 97.197,249.689 97.072,250.686 97.482 C 252.197 98.102,251.915 98.446,249.000 99.537 C 247.075 100.258,243.700 100.876,241.500 100.911 C 235.123 101.012,200.365 112.058,196.210 115.304 C 195.500 115.858,192.611 116.676,189.790 117.122 C 186.968 117.568,184.398 118.296,184.080 118.740 C 183.187 119.982,178.197 123.000,177.035 123.000 C 175.122 123.000,175.977 120.396,178.750 117.776 C 182.569 114.167,204.226 104.115,211.548 102.551 C 214.875 101.841,219.015 100.527,220.749 99.630 C 222.482 98.734,225.611 97.968,227.700 97.930 C 229.790 97.891,232.400 97.473,233.500 97.000 C 236.412 95.749,239.169 95.887,241.945 97.425 M184.530 104.476 C 176.208 109.087,173.363 109.532,178.500 105.418 C 182.656 102.090,187.040 100.044,190.000 100.052 C 191.847 100.058,190.419 101.212,184.530 104.476 M291.000 102.380 L 294.500 104.017 290.500 103.502 C 288.300 103.219,283.221 102.698,279.214 102.344 C 271.946 101.702,271.923 101.708,269.319 104.850 C 265.674 109.251,264.434 108.780,267.113 104.013 L 269.354 100.025 278.427 100.384 C 284.043 100.606,288.834 101.367,291.000 102.380 M260.000 104.000 C 258.869 106.113,255.377 106.458,249.500 105.039 C 245.678 104.116,247.671 103.187,254.500 102.710 C 257.250 102.518,259.853 102.279,260.285 102.180 C 260.717 102.081,260.589 102.900,260.000 104.000 M302.917 104.641 C 303.146 104.838,301.908 105.000,300.167 105.000 C 298.425 105.000,297.000 104.541,297.000 103.981 C 297.000 103.084,301.722 103.611,302.917 104.641 M305.000 107.874 C 310.775 109.043,317.573 110.427,320.107 110.949 C 325.996 112.163,336.916 117.071,335.177 117.721 C 334.449 117.993,331.974 117.500,329.677 116.625 C 327.379 115.749,322.800 114.608,319.500 114.088 C 316.200 113.568,311.025 112.225,308.000 111.104 C 304.975 109.983,300.558 109.051,298.184 109.033 C 293.567 108.998,290.000 107.610,290.000 105.848 C 290.000 105.248,291.001 104.985,292.250 105.258 C 293.488 105.528,299.225 106.706,305.000 107.874 M215.000 113.500 C 213.625 114.286,211.600 114.925,210.500 114.919 C 208.978 114.912,209.217 114.582,211.500 113.536 C 215.483 111.712,218.176 111.684,215.000 113.500 M215.287 117.113 C 213.745 118.655,205.000 119.566,205.000 118.185 C 205.000 117.593,207.137 116.941,209.750 116.735 C 212.363 116.529,214.928 116.279,215.450 116.180 C 215.972 116.081,215.899 116.501,215.287 117.113 M263.026 121.032 C 282.533 123.409,309.299 133.890,330.500 147.453 C 333.250 149.212,336.833 151.478,338.463 152.488 C 341.190 154.179,341.269 154.382,339.463 155.049 C 338.383 155.447,337.094 155.395,336.597 154.934 C 335.737 154.134,328.146 158.914,325.813 161.725 C 324.950 162.765,325.119 162.900,326.609 162.360 C 327.649 161.983,329.625 160.910,331.000 159.976 C 333.901 158.005,340.907 155.574,341.622 156.289 C 342.271 156.937,326.206 165.663,320.951 167.517 C 318.677 168.319,315.474 170.106,313.832 171.488 C 312.190 172.870,310.463 174.000,309.995 174.000 C 309.526 174.000,308.436 174.707,307.571 175.571 C 306.143 177.000,306.000 176.858,306.000 174.012 C 306.000 172.291,306.412 171.137,306.916 171.448 C 307.419 171.759,307.307 170.624,306.666 168.926 C 305.645 166.222,305.746 165.659,307.478 164.393 C 309.238 163.106,309.532 163.142,310.157 164.723 C 310.775 166.287,310.868 166.300,310.930 164.832 C 310.968 163.914,311.301 162.378,311.670 161.418 C 312.083 160.341,311.947 159.915,311.314 160.306 C 310.683 160.696,310.463 160.026,310.743 158.564 C 311.463 154.798,308.280 145.511,305.103 142.110 C 303.408 140.296,301.195 139.000,299.790 139.000 C 298.466 139.000,296.509 138.339,295.441 137.532 C 293.611 136.148,293.701 136.057,297.000 135.951 L 300.500 135.838 297.500 134.464 C 293.187 132.489,292.907 132.590,288.547 137.686 C 285.873 140.811,284.417 143.604,284.047 146.316 C 283.593 149.642,282.988 150.511,280.500 151.413 C 278.850 152.011,276.266 153.337,274.757 154.360 C 271.777 156.382,268.193 156.050,265.661 153.519 C 264.701 152.558,263.964 148.968,263.559 143.270 C 262.356 126.350,261.342 125.153,247.869 124.739 L 240.238 124.504 235.162 129.252 C 230.274 133.824,228.005 134.707,224.552 133.382 C 223.073 132.814,223.073 132.667,224.560 131.580 C 225.976 130.545,225.663 130.039,222.071 127.549 C 219.812 125.984,217.656 125.011,217.279 125.387 C 216.903 125.764,217.358 128.193,218.290 130.786 L 219.986 135.500 217.588 132.805 C 216.269 131.322,214.553 129.200,213.775 128.089 C 212.996 126.977,211.098 125.413,209.556 124.614 L 206.754 123.160 211.627 122.441 C 214.307 122.046,217.400 121.364,218.500 120.925 C 221.432 119.755,253.170 119.832,263.026 121.032 M347.312 126.800 C 348.859 127.575,349.963 128.370,349.766 128.568 C 348.917 129.416,339.403 125.788,337.302 123.814 C 333.490 120.233,334.700 119.634,339.750 122.600 C 342.363 124.135,345.766 126.025,347.312 126.800 M173.687 124.494 C 176.361 125.828,177.183 125.816,181.388 124.383 C 188.078 122.104,198.374 122.836,203.011 125.921 C 206.626 128.326,211.520 134.223,214.279 139.500 C 220.527 151.448,225.226 162.268,225.699 165.796 C 226.064 168.513,226.647 169.720,227.379 169.272 C 228.600 168.524,227.702 169.850,221.218 178.372 C 218.864 181.468,216.749 184.000,216.519 184.000 C 215.939 184.000,218.683 177.244,221.042 172.864 C 223.662 167.999,223.511 164.917,220.336 158.434 C 217.612 152.869,215.888 151.711,217.784 156.718 C 218.363 158.248,219.111 160.850,219.444 162.500 C 220.044 165.463,220.029 165.475,218.276 163.448 C 217.299 162.319,214.579 160.170,212.231 158.671 L 207.962 155.947 205.487 158.422 L 203.012 160.897 202.506 158.698 C 202.066 156.786,202.126 152.000,202.591 152.000 C 202.681 152.000,204.498 152.764,206.628 153.698 C 211.584 155.872,215.000 156.243,215.000 154.607 C 215.000 153.906,214.688 153.022,214.308 152.641 C 213.927 152.260,213.466 150.971,213.284 149.777 C 213.101 148.582,212.287 146.870,211.474 145.971 C 210.661 145.073,210.255 144.079,210.572 143.762 C 211.387 142.946,208.601 137.854,206.102 135.593 C 203.788 133.498,203.154 135.011,205.403 137.260 C 206.608 138.465,206.121 139.255,201.968 142.832 C 196.502 147.540,192.438 148.247,189.500 145.000 C 187.714 143.026,187.754 143.000,192.595 142.968 C 195.293 142.951,198.323 142.313,199.329 141.550 C 200.949 140.322,200.289 140.126,193.572 139.832 L 185.985 139.500 184.361 142.929 L 182.736 146.358 180.785 143.679 C 179.625 142.086,177.880 141.000,176.482 141.000 C 175.188 141.000,172.954 140.553,171.517 140.006 C 169.398 139.201,168.497 139.390,166.763 141.006 C 165.586 142.103,164.119 143.000,163.503 143.000 C 162.886 143.000,161.509 143.708,160.441 144.574 C 159.374 145.440,159.132 145.820,159.905 145.420 C 160.851 144.929,161.067 145.083,160.565 145.894 C 160.000 146.808,159.487 146.819,158.427 145.939 C 157.319 145.020,155.832 145.753,151.209 149.495 C 145.395 154.202,142.793 158.165,139.516 167.304 C 138.283 170.741,136.722 172.817,134.031 174.598 C 131.126 176.521,129.012 179.540,124.758 187.845 C 116.998 202.989,116.135 208.828,122.382 203.914 C 123.822 202.781,125.000 202.364,125.000 202.986 C 125.000 203.628,125.533 203.788,126.232 203.357 C 129.475 201.352,122.361 208.744,117.750 212.170 C 114.863 214.315,111.723 217.067,110.772 218.285 C 108.202 221.580,108.633 219.901,112.000 213.500 C 113.650 210.363,115.000 206.789,115.000 205.557 C 115.000 196.970,128.026 170.682,138.830 157.466 C 139.294 156.898,140.003 155.122,140.405 153.521 C 140.807 151.919,142.343 149.138,143.818 147.341 C 145.293 145.544,147.547 142.707,148.826 141.037 C 150.658 138.645,151.919 138.000,154.762 138.000 C 159.061 138.000,163.000 134.782,163.000 131.269 C 163.000 129.862,164.318 127.683,166.223 125.944 C 169.972 122.519,169.797 122.553,173.687 124.494 M182.000 128.500 C 180.550 129.329,180.130 129.931,181.000 129.933 C 181.825 129.935,183.374 129.276,184.441 128.468 C 186.911 126.600,185.287 126.621,182.000 128.500 M194.000 127.552 C 194.000 127.856,195.350 128.575,197.000 129.150 C 200.943 130.524,200.784 131.538,196.250 133.932 C 192.704 135.804,192.643 135.914,195.139 135.956 C 198.553 136.013,202.323 133.005,201.506 130.877 C 200.660 128.672,194.000 125.722,194.000 127.552 M310.000 130.000 C 312.156 131.100,314.558 132.000,315.338 132.000 C 316.117 132.000,317.298 132.655,317.962 133.454 C 318.994 134.698,318.758 134.776,316.335 133.992 C 307.886 131.260,303.093 129.240,303.676 128.657 C 304.708 127.625,305.798 127.856,310.000 130.000 M354.584 130.032 C 361.906 132.816,374.941 147.608,380.187 159.089 C 381.955 162.955,383.861 165.369,386.376 166.924 C 390.073 169.208,396.008 178.188,400.043 187.601 C 402.814 194.064,402.073 195.013,398.308 189.827 C 392.883 182.354,361.757 151.708,358.500 150.631 C 356.746 150.052,349.334 140.000,350.661 140.000 C 350.943 140.000,353.543 142.363,356.439 145.250 C 359.336 148.137,364.003 152.206,366.812 154.291 C 369.620 156.376,373.624 160.277,375.709 162.960 C 379.353 167.650,387.000 173.187,387.000 171.137 C 387.000 170.592,385.492 168.875,383.649 167.323 C 381.806 165.770,378.731 162.022,376.817 158.994 C 373.368 153.537,369.424 149.410,359.217 140.574 C 354.885 136.824,353.229 136.000,350.026 136.000 C 347.876 136.000,345.854 135.573,345.531 135.051 C 344.616 133.569,352.038 132.543,354.146 133.859 C 356.582 135.381,357.052 135.298,356.350 133.470 C 356.027 132.628,354.579 131.296,353.131 130.510 C 350.021 128.820,350.759 128.577,354.584 130.032 M175.582 135.982 C 176.687 137.087,184.767 138.027,186.719 137.278 C 189.585 136.178,186.494 135.000,180.741 135.000 C 176.721 135.000,174.939 135.339,175.582 135.982 M332.652 141.608 C 336.642 144.575,344.924 149.000,346.488 149.000 C 347.143 149.000,348.192 150.125,348.818 151.500 C 349.486 152.967,350.793 154.000,351.979 154.000 C 353.090 154.000,354.000 154.450,354.000 155.000 C 354.000 156.946,349.957 155.966,347.813 153.500 C 346.618 152.125,345.027 151.000,344.279 151.000 C 343.531 151.000,341.700 150.194,340.210 149.210 C 338.719 148.225,336.773 146.988,335.885 146.460 C 328.749 142.219,323.013 137.788,323.545 136.928 C 324.206 135.858,326.515 137.045,332.652 141.608 M264.471 138.576 C 264.921 139.634,265.618 142.300,266.020 144.500 C 266.605 147.707,266.774 147.942,266.875 145.684 C 266.984 143.225,267.349 142.907,269.750 143.184 C 271.750 143.414,272.590 144.135,272.830 145.826 C 273.055 147.421,273.632 147.972,274.661 147.576 C 275.488 147.259,276.378 147.000,276.641 147.000 C 276.903 147.000,276.840 146.550,276.500 146.000 C 276.160 145.450,276.505 145.000,277.267 145.000 C 278.028 145.000,279.708 143.875,281.000 142.500 L 283.349 140.000 278.924 139.976 C 274.529 139.952,269.259 138.952,265.576 137.442 C 263.952 136.775,263.780 136.952,264.471 138.576 M259.885 146.000 C 259.808 149.207,259.734 149.291,259.000 147.000 C 258.560 145.625,258.161 143.375,258.115 142.000 C 258.049 140.034,258.238 139.821,259.000 141.000 C 259.533 141.825,259.931 144.075,259.885 146.000 M364.996 142.496 C 366.286 143.869,367.562 144.772,367.831 144.502 C 368.495 143.838,364.948 140.000,363.671 140.000 C 363.110 140.000,363.707 141.123,364.996 142.496 M208.025 145.954 C 207.072 147.733,207.271 148.152,209.460 148.985 C 211.254 149.667,212.000 150.692,212.000 152.475 C 212.000 153.864,211.564 155.000,211.031 155.000 C 210.499 155.000,210.274 154.438,210.533 153.750 C 210.792 153.063,209.652 151.733,208.002 150.797 C 204.612 148.873,204.191 146.551,206.724 143.752 C 208.751 141.512,209.617 142.979,208.025 145.954 M174.762 146.687 C 173.806 146.937,172.006 146.946,170.762 146.707 C 169.518 146.468,170.300 146.263,172.500 146.252 C 174.700 146.241,175.718 146.437,174.762 146.687 M302.959 155.817 C 303.023 157.871,298.846 156.183,296.314 153.133 C 294.465 150.906,294.225 149.693,294.926 146.121 C 295.106 145.203,302.922 154.637,302.959 155.817 M200.125 159.238 C 200.881 159.507,201.177 160.074,200.781 160.499 C 199.771 161.584,195.000 158.266,195.000 156.477 C 195.000 155.316,195.401 155.401,196.875 156.875 C 197.906 157.906,199.369 158.970,200.125 159.238 M286.804 157.081 C 289.213 157.921,291.270 160.382,296.010 168.096 C 299.367 173.559,302.724 179.485,303.470 181.265 C 305.383 185.832,308.714 188.415,314.500 189.822 C 321.003 191.403,325.392 196.065,324.551 200.500 C 322.162 213.096,321.656 218.231,322.648 219.809 C 323.232 220.739,325.913 222.315,328.605 223.311 C 335.094 225.711,335.941 226.704,336.657 232.750 C 337.303 238.206,335.203 243.917,330.800 248.678 L 328.786 250.857 333.261 255.678 C 335.723 258.330,338.476 261.949,339.379 263.720 C 341.177 267.247,341.445 266.865,334.532 270.611 C 333.450 271.197,331.875 272.890,331.032 274.373 C 328.572 278.702,321.996 281.101,322.002 277.667 C 322.003 277.025,323.385 273.880,325.073 270.677 L 328.143 264.855 326.651 258.979 C 324.580 250.819,312.667 225.548,307.309 217.951 C 305.545 215.449,303.234 211.379,302.174 208.906 C 299.921 203.651,287.698 190.618,283.439 188.929 C 281.822 188.289,275.550 187.351,269.500 186.845 C 249.338 185.158,243.169 184.504,242.672 184.000 C 241.655 182.970,240.807 176.000,241.698 176.000 C 242.204 176.000,243.491 176.661,244.559 177.468 C 245.626 178.276,247.163 178.951,247.973 178.968 C 248.859 178.987,248.462 178.318,246.973 177.285 C 245.613 176.342,243.628 174.767,242.561 173.785 C 241.495 172.803,240.313 172.000,239.934 172.000 C 238.153 172.000,236.911 175.249,237.191 179.173 C 237.424 182.432,237.994 183.674,239.500 184.206 C 240.600 184.594,237.374 184.819,232.332 184.706 C 227.290 184.593,222.825 184.161,222.411 183.746 C 221.997 183.331,222.636 181.952,223.829 180.682 C 225.023 179.411,226.000 177.838,226.000 177.186 C 226.000 176.533,226.438 176.000,226.974 176.000 C 228.487 176.000,231.169 170.108,230.548 168.150 C 229.956 166.286,234.949 160.835,238.341 159.641 C 241.242 158.620,246.368 161.656,252.377 167.956 C 257.496 173.323,257.869 174.033,257.326 177.380 C 256.674 181.397,258.217 182.332,260.000 179.000 C 260.744 177.609,260.754 176.410,260.032 175.061 C 259.379 173.839,259.349 172.902,259.954 172.529 C 260.481 172.203,260.653 171.259,260.335 170.431 C 259.398 167.989,262.860 165.143,272.467 160.456 C 282.514 155.554,282.459 155.567,286.804 157.081 M214.000 163.222 C 214.000 164.846,206.772 171.000,204.864 171.000 C 202.044 171.000,201.672 169.075,204.299 168.076 C 205.629 167.571,207.794 165.838,209.109 164.226 C 211.345 161.486,214.000 160.941,214.000 163.222 M191.500 164.000 C 192.292 165.282,187.983 165.282,186.000 164.000 C 184.859 163.262,185.263 163.027,187.691 163.015 C 189.446 163.007,191.160 163.450,191.500 164.000 M277.663 165.182 C 280.431 166.520,281.123 169.161,279.183 170.974 C 277.852 172.217,278.181 172.560,281.898 173.799 C 284.688 174.729,286.439 176.026,287.040 177.605 C 288.383 181.138,289.233 180.516,288.679 176.406 C 288.000 171.371,281.307 163.944,277.559 164.068 C 275.541 164.134,275.543 164.156,277.663 165.182 M343.360 172.750 C 341.746 180.960,342.513 189.112,345.224 192.558 C 346.604 194.312,347.070 196.068,346.745 198.287 C 346.486 200.047,347.042 203.739,347.979 206.493 C 350.708 214.507,351.180 218.000,349.536 218.000 C 348.607 218.000,347.903 216.374,347.480 213.250 C 347.127 210.637,346.376 206.997,345.812 205.160 C 345.248 203.324,345.060 200.449,345.395 198.773 C 346.091 195.297,344.074 193.085,340.162 193.032 C 337.985 193.002,337.871 193.276,338.500 197.000 C 339.050 200.254,338.883 201.000,337.607 201.000 C 336.316 201.000,336.147 200.160,336.654 196.250 C 336.992 193.637,337.883 190.790,338.633 189.923 C 339.455 188.973,340.250 184.597,340.632 178.923 C 341.052 172.689,341.781 168.908,342.788 167.750 C 343.625 166.787,344.395 166.000,344.498 166.000 C 344.602 166.000,344.089 169.037,343.360 172.750 M349.732 171.594 C 348.523 172.984,347.372 173.615,347.167 173.000 C 346.696 171.589,349.985 167.873,351.096 168.559 C 351.552 168.841,350.938 170.206,349.732 171.594 M361.085 175.956 C 362.833 178.132,364.559 179.819,364.920 179.706 C 365.281 179.593,366.817 180.738,368.333 182.250 C 369.850 183.762,370.532 185.000,369.849 185.000 C 367.879 185.000,361.118 179.948,360.506 178.017 C 360.199 177.053,359.070 175.468,357.995 174.496 C 356.211 172.881,355.987 172.870,355.414 174.364 C 355.069 175.264,354.368 176.000,353.858 176.000 C 353.334 176.000,353.396 175.128,354.000 174.000 C 355.597 171.016,357.548 171.555,361.085 175.956 M144.004 175.496 C 142.714 176.869,141.438 177.772,141.169 177.502 C 140.505 176.838,144.052 173.000,145.329 173.000 C 145.890 173.000,145.293 174.123,144.004 175.496 M330.733 177.133 C 331.356 177.756,332.683 177.952,333.683 177.568 C 337.549 176.085,337.687 179.057,333.909 182.424 C 330.964 185.047,329.400 185.781,330.482 184.029 C 331.375 182.583,328.293 177.221,326.264 176.692 C 325.075 176.382,325.331 176.194,327.050 176.116 C 328.453 176.052,330.110 176.510,330.733 177.133 M349.114 182.011 C 349.639 184.350,349.835 186.499,349.548 186.786 C 348.797 187.536,346.000 180.478,346.000 177.832 C 346.000 174.356,347.995 177.034,349.114 182.011 M269.762 180.707 C 271.006 180.946,272.806 180.937,273.762 180.687 C 274.718 180.437,273.700 180.241,271.500 180.252 C 269.300 180.263,268.518 180.468,269.762 180.707 M279.250 182.644 C 277.411 183.413,277.724 185.320,279.572 184.611 C 280.437 184.279,282.052 184.493,283.162 185.087 C 284.870 186.001,285.125 185.886,284.829 184.333 C 284.481 182.509,281.633 181.647,279.250 182.644 M354.057 195.138 L 352.007 198.500 352.004 195.757 C 352.002 194.248,352.788 191.179,353.750 188.938 L 355.500 184.862 355.804 188.318 C 355.995 190.493,355.347 193.023,354.057 195.138 M373.459 196.878 C 373.917 198.570,373.510 199.807,372.051 201.167 C 369.665 203.390,369.630 203.704,371.401 206.901 C 372.667 209.185,372.783 209.210,373.791 207.409 C 374.373 206.368,375.215 205.881,375.660 206.327 C 376.376 207.042,372.422 210.920,370.919 210.978 C 370.599 210.990,369.724 209.853,368.974 208.452 C 367.857 206.364,367.835 205.068,368.851 201.266 L 370.092 196.628 365.963 192.853 C 363.692 190.777,362.117 188.620,362.463 188.060 C 363.381 186.575,372.692 194.041,373.459 196.878 M127.004 190.496 C 125.714 191.869,124.398 192.730,124.079 192.410 C 123.761 192.090,124.562 190.967,125.861 189.914 C 129.179 187.224,129.787 187.533,127.004 190.496 M266.000 189.292 C 273.675 189.549,278.469 190.346,283.146 192.141 C 285.738 193.136,299.000 207.254,299.000 209.019 C 299.000 209.512,301.410 213.974,304.355 218.934 C 307.300 223.895,311.160 231.451,312.932 235.727 C 314.704 240.002,317.695 246.650,319.578 250.500 C 322.120 255.698,323.001 258.819,323.001 262.623 C 323.000 268.871,320.006 276.046,316.086 279.195 C 313.449 281.314,300.671 300.770,296.512 309.000 C 294.376 313.226,286.239 323.000,284.856 323.000 C 284.311 323.000,285.418 321.087,287.315 318.750 C 289.212 316.413,291.893 312.250,293.273 309.500 C 297.669 300.740,311.122 279.649,315.053 275.355 C 322.444 267.281,322.214 260.320,314.052 245.048 C 311.273 239.849,309.000 234.615,309.000 233.418 C 309.000 231.310,305.593 224.192,299.307 213.168 C 295.455 206.412,285.554 196.157,281.051 194.260 C 274.514 191.506,234.298 188.458,225.000 190.013 C 221.425 190.611,216.925 191.293,215.000 191.530 L 211.500 191.961 214.701 190.964 C 216.461 190.417,218.196 189.492,218.556 188.909 C 219.161 187.930,227.251 187.995,266.000 189.292 M381.000 189.617 C 381.000 189.973,381.937 191.780,383.082 193.632 C 384.610 196.105,385.872 196.996,387.832 196.985 C 389.676 196.974,390.088 196.708,389.165 196.123 C 388.430 195.657,387.929 194.893,388.050 194.424 C 388.171 193.956,386.635 192.537,384.635 191.272 C 382.636 190.006,381.000 189.262,381.000 189.617 M266.859 194.945 C 275.186 195.549,281.025 196.445,282.359 197.325 C 285.807 199.599,300.169 223.145,309.000 241.000 C 316.327 255.814,317.098 257.909,316.539 261.500 C 316.136 264.086,311.580 272.748,303.653 286.000 C 296.909 297.275,290.180 309.016,288.700 312.091 C 283.848 322.171,286.894 321.500,245.968 321.500 C 211.256 321.500,210.059 321.436,207.323 319.420 C 202.954 316.200,196.877 306.536,181.589 278.500 C 174.821 266.088,174.500 265.200,174.500 258.860 C 174.500 252.912,175.000 251.232,179.303 242.735 C 181.945 237.519,186.220 229.832,188.803 225.654 C 191.386 221.475,195.660 214.513,198.300 210.183 C 204.496 200.018,209.227 195.467,215.000 194.119 C 219.930 192.968,245.120 193.369,266.859 194.945 M213.790 197.824 C 208.521 200.204,204.195 205.736,192.984 224.428 C 181.739 243.178,176.727 253.864,176.727 259.095 C 176.727 264.034,189.475 288.439,203.702 310.735 C 209.187 319.331,208.559 319.203,246.091 319.362 L 278.850 319.500 282.040 316.500 C 283.794 314.850,286.016 311.700,286.977 309.500 C 287.939 307.300,293.593 297.400,299.543 287.500 C 312.134 266.548,314.000 262.957,314.000 259.675 C 314.000 252.622,285.133 202.208,279.357 199.174 C 276.564 197.707,249.333 196.030,229.500 196.104 C 220.492 196.137,216.575 196.566,213.790 197.824 M381.000 203.156 C 381.000 204.131,380.100 205.411,379.000 206.000 C 376.926 207.110,376.061 205.698,378.059 204.464 C 378.665 204.089,378.858 202.462,378.511 200.655 C 377.939 197.672,377.990 197.606,379.453 199.441 C 380.304 200.509,381.000 202.180,381.000 203.156 M181.926 212.950 C 182.036 219.564,179.983 216.658,179.031 208.853 C 178.508 204.561,178.620 202.043,179.378 201.092 C 180.266 199.978,180.641 200.605,181.176 204.092 C 181.548 206.516,181.885 210.502,181.926 212.950 M363.530 203.803 C 362.858 204.475,360.000 201.981,360.000 200.723 C 360.000 200.155,360.903 200.507,362.006 201.506 C 363.110 202.504,363.795 203.538,363.530 203.803 M163.900 208.691 C 163.955 210.446,163.573 212.146,163.051 212.469 C 161.724 213.289,160.621 206.592,161.534 203.257 L 162.287 200.500 163.044 203.000 C 163.460 204.375,163.845 206.936,163.900 208.691 M394.000 202.378 C 394.000 203.135,394.675 204.315,395.500 205.000 C 396.325 205.685,397.000 206.891,397.000 207.681 C 397.000 209.506,398.656 208.512,400.094 205.824 C 400.702 204.688,400.765 204.027,400.233 204.356 C 399.702 204.684,398.462 204.063,397.479 202.976 C 395.390 200.669,394.000 200.430,394.000 202.378 M193.225 213.640 C 189.986 219.613,184.950 228.325,182.033 233.000 C 174.360 245.298,170.000 254.806,170.000 259.240 C 170.000 263.397,179.501 282.687,192.152 304.217 C 195.939 310.661,199.299 316.736,199.618 317.717 C 200.755 321.210,187.770 300.515,181.044 288.114 C 172.221 271.849,168.829 263.645,168.749 258.377 C 168.672 253.252,173.979 241.665,182.341 228.703 C 185.458 223.871,189.184 217.597,190.622 214.759 C 192.060 211.921,194.374 207.881,195.765 205.779 C 200.448 198.702,199.156 202.702,193.225 213.640 M308.525 203.783 C 309.639 204.727,310.393 206.287,310.202 207.250 C 309.732 209.611,311.675 209.477,312.968 207.059 C 313.807 205.492,313.578 204.818,311.781 203.559 C 308.585 201.321,305.843 201.509,308.525 203.783 M354.000 207.191 C 354.000 208.186,354.702 209.000,355.559 209.000 C 356.416 209.000,356.840 209.450,356.500 210.000 C 355.339 211.879,353.899 211.002,352.449 207.532 C 351.652 205.625,351.014 203.487,351.032 202.782 C 351.081 200.784,354.000 205.120,354.000 207.191 M147.961 212.250 C 147.923 221.246,147.882 221.407,146.461 218.135 C 145.657 216.285,145.000 213.539,145.000 212.034 C 145.000 209.329,146.820 203.000,147.598 203.000 C 147.819 203.000,147.982 207.162,147.961 212.250 M389.433 205.313 C 389.156 206.035,389.845 207.455,390.965 208.468 C 392.084 209.481,392.986 211.478,392.970 212.905 C 392.941 215.350,392.873 215.385,391.787 213.512 C 391.153 212.418,389.816 210.646,388.817 209.573 C 387.818 208.501,387.000 207.168,387.000 206.611 C 387.000 206.002,386.549 206.051,385.865 206.735 C 385.019 207.581,385.146 208.908,386.365 211.955 C 388.539 217.388,388.399 219.075,386.028 216.000 C 383.138 212.252,382.633 209.064,384.585 206.906 C 385.510 205.884,386.626 205.269,387.065 205.540 C 387.503 205.811,388.144 205.575,388.490 205.016 C 389.390 203.560,390.029 203.761,389.433 205.313 M361.000 207.500 C 362.375 208.286,363.050 208.929,362.500 208.929 C 361.950 208.929,360.375 208.286,359.000 207.500 C 357.625 206.714,356.950 206.071,357.500 206.071 C 358.050 206.071,359.625 206.714,361.000 207.500 M343.985 209.750 C 343.973 211.893,343.755 212.169,343.000 211.000 C 341.736 209.043,341.736 207.000,343.000 207.000 C 343.550 207.000,343.993 208.238,343.985 209.750 M334.692 215.323 C 336.493 217.424,336.491 217.426,334.000 215.852 C 332.237 214.739,331.439 213.274,331.294 210.887 L 331.088 207.500 331.986 210.357 C 332.480 211.929,333.698 214.164,334.692 215.323 M338.587 211.492 C 339.571 212.994,339.928 214.683,339.487 215.742 C 338.874 217.212,338.621 217.039,337.946 214.686 C 337.502 213.138,336.602 211.226,335.947 210.436 C 335.127 209.448,335.098 209.000,335.855 209.000 C 336.459 209.000,337.689 210.122,338.587 211.492 M400.500 210.000 C 400.160 210.550,400.574 211.000,401.421 211.000 C 402.267 211.000,403.882 212.809,405.010 215.020 L 407.061 219.039 404.530 221.384 C 401.958 223.768,401.359 226.441,402.865 228.816 C 404.243 230.989,409.067 233.062,410.664 232.168 C 411.790 231.538,411.151 230.704,407.888 228.545 L 403.649 225.740 406.325 224.338 C 408.124 223.395,409.000 222.128,409.000 220.468 C 409.000 219.111,408.550 218.000,408.000 218.000 C 407.450 218.000,407.000 217.303,407.000 216.450 C 407.000 211.935,402.230 207.201,400.500 210.000 M380.673 214.750 C 381.619 216.262,383.541 218.472,384.946 219.660 C 386.351 220.849,387.163 222.161,386.750 222.577 C 386.337 222.993,386.000 222.808,386.000 222.167 C 386.000 221.525,385.191 221.000,384.203 221.000 C 383.215 221.000,380.656 219.208,378.518 217.018 C 376.380 214.828,374.490 213.177,374.318 213.349 C 373.852 213.815,377.133 223.309,378.255 224.739 C 378.789 225.420,379.695 225.688,380.268 225.334 C 380.872 224.961,381.010 225.175,380.595 225.845 C 379.412 227.760,378.302 227.205,373.874 222.481 C 369.319 217.621,366.605 217.642,368.827 222.520 C 369.472 223.936,369.964 226.535,369.919 228.297 L 369.838 231.500 367.945 227.500 C 366.904 225.300,366.055 222.600,366.058 221.500 C 366.066 218.685,368.354 216.000,370.744 216.000 C 371.926 216.000,372.984 215.169,373.290 214.000 C 374.096 210.917,378.561 211.371,380.673 214.750 M270.984 214.852 C 273.002 215.934,274.991 218.063,275.771 219.975 L 277.107 223.247 272.830 219.587 C 270.478 217.573,267.642 215.743,266.527 215.520 C 265.412 215.296,262.700 214.684,260.500 214.160 L 256.500 213.207 262.016 213.103 C 265.642 213.035,268.714 213.634,270.984 214.852 M257.500 215.900 C 260.054 217.393,263.454 221.880,262.644 222.689 C 262.503 222.830,260.613 222.456,258.444 221.857 C 256.275 221.258,251.937 221.000,248.805 221.284 C 244.845 221.643,242.559 221.383,241.305 220.432 C 240.312 219.679,237.475 218.998,235.000 218.917 L 230.500 218.770 234.000 218.005 C 235.925 217.584,239.300 216.542,241.500 215.690 C 246.798 213.638,253.788 213.730,257.500 215.900 M204.310 219.300 C 202.683 221.152,200.761 224.780,200.039 227.362 C 198.339 233.432,197.606 232.726,199.021 226.383 C 199.711 223.292,201.258 220.313,203.237 218.265 C 207.292 214.069,208.164 214.911,204.310 219.300 M400.000 216.500 C 400.685 217.325,401.897 218.000,402.694 218.000 C 403.937 218.000,403.929 217.786,402.643 216.500 C 401.818 215.675,400.606 215.000,399.949 215.000 C 399.046 215.000,399.059 215.366,400.000 216.500 M221.020 219.476 C 220.324 220.314,219.290 221.000,218.723 221.000 C 218.155 221.000,218.507 220.097,219.506 218.994 C 221.574 216.709,222.952 217.147,221.020 219.476 M103.573 230.251 C 102.604 235.888,100.746 245.225,99.445 251.000 C 98.144 256.775,96.798 264.139,96.454 267.364 C 96.109 270.589,95.453 272.839,94.995 272.364 C 94.537 271.889,93.667 267.225,93.061 262.000 C 92.032 253.131,92.121 251.902,94.398 243.500 C 98.734 227.496,103.003 217.670,104.828 219.494 C 105.107 219.773,104.542 224.613,103.573 230.251 M313.870 219.783 C 311.501 220.077,311.348 220.339,312.331 222.422 L 313.422 224.733 315.325 222.314 C 317.523 219.520,317.421 219.342,313.870 219.783 M318.000 223.864 C 318.000 226.656,318.749 228.737,320.506 230.824 C 321.943 232.532,322.902 234.804,322.756 236.151 C 322.563 237.919,322.995 238.500,324.500 238.500 C 328.092 238.500,327.578 233.952,323.543 230.042 C 321.180 227.752,320.000 225.693,320.000 223.863 C 320.000 222.353,319.550 220.840,319.000 220.500 C 318.397 220.127,318.000 221.464,318.000 223.864 M363.541 221.954 C 362.057 223.594,361.952 224.423,362.886 227.104 C 364.675 232.236,364.388 233.661,362.000 231.500 C 359.383 229.132,359.457 225.206,362.174 222.314 C 364.804 219.515,366.045 219.188,363.541 221.954 M391.899 226.873 C 391.804 230.654,392.089 234.335,392.534 235.055 C 392.979 235.774,391.760 235.156,389.827 233.681 C 387.091 231.594,385.113 230.974,380.906 230.882 C 376.342 230.782,375.967 230.645,378.500 230.000 C 380.150 229.580,383.337 229.183,385.583 229.118 C 388.030 229.047,389.727 228.499,389.817 227.750 C 390.207 224.498,391.271 220.000,391.650 220.000 C 391.882 220.000,391.994 223.093,391.899 226.873 M235.842 221.881 C 236.709 222.431,234.595 223.115,229.863 223.818 C 220.646 225.186,217.955 228.310,221.035 234.066 C 222.175 236.196,228.369 236.830,229.539 234.936 C 229.985 234.216,229.036 234.090,226.598 234.548 C 224.221 234.994,223.000 234.846,223.000 234.111 C 223.000 233.500,223.598 233.000,224.329 233.000 C 225.059 233.000,227.778 231.595,230.369 229.879 C 234.462 227.168,235.635 226.846,239.290 227.430 C 241.728 227.820,244.614 229.172,246.150 230.643 C 249.204 233.569,253.967 233.978,260.739 231.896 C 264.604 230.708,265.221 230.772,267.739 232.630 C 269.257 233.750,271.400 236.075,272.500 237.795 C 274.729 241.281,277.458 241.907,278.839 239.250 C 280.315 236.410,278.653 233.810,273.929 231.569 C 271.493 230.413,269.488 228.799,269.474 227.983 C 269.459 227.168,269.095 225.938,268.665 225.250 C 267.274 223.029,273.289 223.833,276.179 226.255 C 279.113 228.713,287.000 239.718,287.000 241.353 C 287.000 241.915,285.650 241.081,284.000 239.500 C 282.350 237.919,281.000 236.950,281.000 237.346 C 281.000 239.105,286.587 248.858,289.640 252.430 C 294.002 257.532,294.097 261.828,289.982 267.900 C 288.342 270.321,287.000 273.601,287.000 275.190 C 287.000 280.847,279.761 291.521,273.852 294.577 L 271.000 296.051 271.000 292.526 C 271.000 290.294,271.479 289.000,272.304 289.000 C 273.021 289.000,275.130 287.429,276.990 285.510 C 279.721 282.693,280.385 281.199,280.437 277.760 C 280.471 275.417,280.053 273.500,279.507 273.500 C 278.961 273.500,278.653 274.108,278.824 274.850 C 278.994 275.593,278.719 275.944,278.211 275.631 C 277.704 275.317,277.474 276.059,277.699 277.280 C 277.968 278.737,277.054 280.703,275.039 283.000 L 271.969 286.500 272.562 282.500 C 273.412 276.775,273.840 275.783,275.123 276.576 C 275.815 277.004,276.081 276.736,275.802 275.889 C 275.551 275.125,273.717 274.362,271.727 274.193 C 267.821 273.861,267.979 273.603,265.581 284.250 C 265.241 285.762,264.295 287.000,263.481 287.000 C 262.666 287.000,262.000 287.498,262.000 288.107 C 262.000 288.716,262.712 288.941,263.582 288.607 C 264.452 288.273,265.577 288.000,266.082 288.000 C 266.587 288.000,267.000 287.025,267.000 285.833 C 267.000 284.642,267.279 283.946,267.620 284.287 C 268.597 285.264,267.053 290.150,265.977 289.486 C 265.446 289.158,263.417 290.106,261.467 291.593 C 258.300 294.009,257.664 294.158,255.491 292.995 C 252.140 291.202,248.000 284.954,248.000 281.690 C 248.000 279.014,248.041 279.030,252.326 283.377 C 256.550 287.661,256.728 287.734,259.826 286.431 C 262.416 285.342,263.000 284.529,263.000 282.016 C 263.000 280.322,262.322 277.314,261.494 275.331 L 259.988 271.727 253.494 272.248 C 249.797 272.545,245.849 273.524,244.327 274.521 C 241.904 276.109,241.810 276.388,243.327 277.497 C 244.347 278.243,245.000 280.106,245.000 282.271 C 245.000 285.009,244.295 286.415,241.923 288.411 C 240.231 289.835,238.206 291.056,237.423 291.125 C 236.640 291.194,235.213 291.306,234.250 291.375 C 233.110 291.456,231.817 290.030,230.541 287.285 C 228.596 283.099,226.674 281.780,220.500 280.397 C 215.840 279.352,215.002 278.173,214.978 272.628 C 214.965 269.655,214.103 265.619,212.926 263.025 C 211.566 260.027,211.134 257.716,211.617 256.025 C 212.013 254.636,212.374 253.200,212.418 252.833 C 212.710 250.452,214.000 251.242,214.000 253.802 C 214.000 256.304,214.333 256.809,215.650 256.304 C 217.009 255.783,217.184 256.130,216.646 258.274 C 215.661 262.198,217.279 262.303,221.345 258.578 C 224.494 255.693,225.000 254.619,225.000 250.815 C 225.000 243.187,220.458 241.639,215.269 247.500 C 209.856 253.615,209.082 251.543,213.552 242.900 C 215.212 239.689,215.167 238.616,213.420 239.804 C 211.474 241.128,206.102 249.511,205.444 252.250 C 204.882 254.589,205.098 255.000,206.892 255.000 C 208.099 255.000,209.000 255.641,209.000 256.500 C 209.000 257.437,208.053 258.000,206.479 258.000 C 202.604 258.000,201.435 254.430,203.409 248.617 C 204.284 246.039,205.000 243.146,205.000 242.188 C 205.000 240.137,212.872 229.388,214.113 229.744 C 214.582 229.878,215.238 228.899,215.572 227.568 C 216.760 222.838,219.844 221.469,230.000 221.165 C 232.475 221.091,235.104 221.413,235.842 221.881 M117.615 222.814 C 117.338 223.262,117.007 225.850,116.879 228.564 C 116.716 232.027,115.896 234.499,114.132 236.846 L 111.616 240.192 112.814 253.456 C 113.835 264.757,114.663 268.565,118.411 279.192 C 123.035 292.305,129.057 305.119,134.534 313.500 C 140.501 322.631,153.774 335.248,162.250 339.847 C 166.512 342.160,170.000 344.275,170.000 344.549 C 170.000 345.138,158.797 339.190,151.000 334.463 C 135.070 324.803,115.107 287.738,111.061 260.308 C 109.181 247.567,109.652 238.759,112.500 233.404 C 113.875 230.818,115.000 227.734,115.000 226.551 C 115.000 225.368,115.540 223.860,116.200 223.200 C 117.575 221.825,118.358 221.612,117.615 222.814 M356.127 225.565 C 354.486 227.652,354.219 229.051,354.694 233.065 C 355.016 235.779,355.000 238.000,354.660 238.000 C 354.319 238.000,353.165 236.284,352.095 234.186 C 351.025 232.088,349.103 229.869,347.825 229.254 C 345.693 228.228,345.666 228.127,347.500 228.032 C 348.600 227.975,350.850 226.821,352.500 225.469 C 356.567 222.135,358.779 222.194,356.127 225.565 M177.142 229.208 C 175.707 231.448,175.028 231.941,175.017 230.750 C 175.008 229.787,175.420 229.000,175.933 229.000 C 176.446 229.000,177.162 228.066,177.524 226.925 C 177.886 225.783,178.423 225.089,178.716 225.383 C 179.009 225.676,178.301 227.398,177.142 229.208 M340.269 232.000 C 342.923 232.000,346.000 236.389,346.000 240.174 C 346.000 242.324,345.511 244.000,344.883 244.000 C 344.250 244.000,343.999 243.113,344.302 241.952 C 344.679 240.513,343.823 238.889,341.419 236.486 C 339.538 234.605,338.036 232.264,338.079 231.283 C 338.125 230.236,338.366 230.016,338.662 230.750 C 338.940 231.438,339.663 232.000,340.269 232.000 M380.450 234.810 C 379.928 235.256,378.262 236.146,376.750 236.789 C 374.415 237.781,374.000 237.718,374.000 236.372 C 374.000 235.500,374.563 234.997,375.250 235.255 C 375.938 235.512,377.400 235.367,378.500 234.932 C 381.179 233.872,381.580 233.847,380.450 234.810 M364.564 239.115 C 365.945 240.376,368.117 241.000,371.123 241.000 C 373.644 241.000,376.470 241.672,377.559 242.529 C 379.393 243.974,379.306 244.045,376.000 243.811 C 373.633 243.644,372.584 243.967,372.760 244.811 C 372.930 245.631,372.099 245.455,370.336 244.301 C 368.371 243.013,367.543 242.871,367.243 243.771 C 366.721 245.336,365.000 245.380,365.000 243.829 C 365.000 241.569,361.661 239.000,358.723 239.000 C 356.179 239.000,355.935 238.783,357.019 237.477 C 358.504 235.688,361.530 236.344,364.564 239.115 M402.691 237.687 C 403.064 238.684,404.189 240.091,405.192 240.812 C 406.195 241.534,407.893 243.784,408.964 245.812 L 410.912 249.500 410.956 244.750 C 410.990 241.049,410.647 240.000,409.404 240.000 C 408.527 240.000,406.505 239.072,404.912 237.937 C 402.286 236.068,402.078 236.044,402.691 237.687 M97.212 240.434 C 96.545 241.897,96.031 244.535,96.070 246.297 C 96.133 249.232,96.264 249.095,97.625 244.665 C 99.310 239.178,99.042 236.419,97.212 240.434 M240.313 240.786 C 237.907 242.315,237.040 246.612,238.668 248.936 C 240.626 251.732,245.673 251.510,245.183 248.650 C 244.993 247.539,245.293 247.063,245.933 247.459 C 247.561 248.465,247.214 244.750,245.443 242.223 C 243.826 239.913,242.339 239.497,240.313 240.786 M256.980 243.038 C 255.600 245.617,256.546 248.687,259.151 250.081 C 262.032 251.623,265.000 248.712,265.000 244.345 C 265.000 241.195,264.798 241.000,261.535 241.000 C 259.072 241.000,257.755 241.589,256.980 243.038 M359.694 243.532 C 358.151 244.889,356.126 245.998,355.194 245.995 C 353.954 245.991,354.303 245.332,356.500 243.531 C 360.526 240.231,363.446 240.231,359.694 243.532 M347.096 252.280 C 345.962 254.051,345.026 254.905,345.017 254.179 C 345.008 253.452,345.675 252.182,346.500 251.357 C 347.325 250.532,348.052 248.877,348.116 247.679 C 348.208 245.942,348.326 245.861,348.695 247.280 C 348.950 248.259,348.230 250.509,347.096 252.280 M280.500 257.481 C 280.500 266.121,282.394 269.733,283.593 263.380 C 284.776 257.108,284.457 254.012,282.417 251.978 C 280.528 250.095,280.500 250.176,280.500 257.481 M405.831 253.703 C 405.223 254.437,405.054 256.561,405.432 258.736 C 405.792 260.806,406.179 263.850,406.293 265.500 C 406.407 267.150,407.063 269.095,407.750 269.821 C 408.438 270.548,409.000 272.262,409.000 273.630 C 409.000 275.177,409.414 275.862,410.094 275.442 C 411.259 274.722,411.134 273.781,408.666 264.714 C 407.008 258.626,407.292 256.000,409.607 256.000 C 410.373 256.000,411.000 255.128,411.000 254.062 C 411.000 251.843,407.573 251.605,405.831 253.703 M253.983 259.032 C 253.110 260.664,253.123 261.882,254.038 264.091 C 255.039 266.508,255.826 267.000,258.693 267.000 C 260.590 267.000,262.824 266.319,263.656 265.487 C 265.007 264.136,264.967 263.627,263.286 260.737 C 260.882 256.605,255.782 255.671,253.983 259.032 M235.000 262.727 C 231.829 263.304,229.000 265.804,229.000 268.028 C 229.000 270.008,232.815 279.000,233.655 279.000 C 233.964 279.000,233.945 277.918,233.613 276.595 C 233.110 274.590,233.327 274.273,234.912 274.687 C 239.476 275.881,243.018 267.161,239.429 263.571 C 238.564 262.707,237.777 262.061,237.679 262.136 C 237.580 262.211,236.375 262.477,235.000 262.727 M203.623 266.959 C 203.071 270.408,203.377 271.360,205.995 274.341 C 207.648 276.224,209.000 278.183,209.000 278.695 C 209.000 279.207,210.303 280.874,211.896 282.400 C 214.110 284.522,214.950 286.446,215.467 290.580 C 216.202 296.467,218.435 299.000,222.889 299.000 C 226.122 299.000,225.295 299.688,221.317 300.308 C 217.214 300.948,215.048 298.641,213.880 292.385 C 213.210 288.802,211.867 286.495,208.179 282.596 C 202.303 276.382,199.416 269.667,200.920 265.711 C 202.538 261.455,204.368 262.300,203.623 266.959 M220.422 267.987 C 220.764 269.904,221.710 272.138,222.522 272.951 C 224.721 275.150,224.397 272.701,221.900 268.246 L 219.799 264.500 220.422 267.987 M363.429 267.571 C 365.752 269.895,365.339 270.268,362.500 268.408 C 361.125 267.507,360.000 266.597,360.000 266.385 C 360.000 265.447,361.994 266.137,363.429 267.571 M350.800 273.045 C 351.735 273.070,353.850 273.693,355.500 274.430 C 358.462 275.753,358.443 275.764,354.000 275.250 C 348.934 274.664,346.986 273.512,347.030 271.128 C 347.057 269.700,347.186 269.715,348.080 271.250 C 348.641 272.212,349.865 273.020,350.800 273.045 M379.000 271.000 C 380.078 271.697,379.079 271.974,375.450 271.985 C 372.672 271.993,369.860 272.540,369.200 273.200 C 368.267 274.133,368.000 274.059,368.000 272.867 C 368.000 272.023,368.300 271.033,368.667 270.667 C 369.679 269.654,377.298 269.900,379.000 271.000 M403.734 275.196 C 404.692 282.580,405.956 284.100,405.717 277.579 C 405.591 274.146,405.012 271.497,404.338 271.275 C 403.521 271.006,403.341 272.169,403.734 275.196 M199.579 280.385 C 201.736 283.072,205.750 289.812,208.500 295.363 C 212.149 302.730,214.418 306.070,216.898 307.728 C 219.617 309.546,219.894 310.000,218.283 310.000 C 214.939 310.000,210.874 305.965,208.281 300.072 C 203.930 290.185,201.140 285.064,197.533 280.339 C 195.590 277.794,194.000 275.237,194.000 274.656 C 194.000 273.451,194.079 273.532,199.579 280.385 M191.548 279.093 C 192.428 280.794,192.970 282.363,192.753 282.580 C 192.536 282.797,191.610 281.406,190.695 279.487 C 188.639 275.175,189.351 274.845,191.548 279.093 M407.082 284.368 C 405.937 286.220,405.000 288.177,405.000 288.715 C 405.000 289.253,404.100 290.732,403.000 292.000 C 400.785 294.554,400.061 303.480,402.125 302.792 C 404.368 302.044,408.806 292.404,409.513 286.744 C 409.908 283.585,409.990 281.000,409.697 281.000 C 409.403 281.000,408.226 282.516,407.082 284.368 M336.571 289.025 C 336.571 290.327,336.083 290.862,335.204 290.525 C 334.452 290.236,333.311 289.984,332.668 289.965 C 332.026 289.945,332.625 289.286,334.000 288.500 C 335.375 287.714,336.516 287.055,336.536 287.035 C 336.555 287.016,336.571 287.911,336.571 289.025 M327.072 295.142 C 324.846 297.539,323.019 298.970,323.012 298.321 C 322.997 296.824,329.840 289.507,330.572 290.239 C 330.873 290.539,329.297 292.746,327.072 295.142 M263.000 295.566 C 263.000 299.525,261.054 300.998,255.715 301.079 C 252.847 301.122,251.063 301.385,251.750 301.662 C 255.110 303.018,252.162 303.684,244.331 303.337 C 237.760 303.047,234.843 302.448,232.278 300.863 C 228.165 298.321,228.445 297.732,233.148 299.030 C 237.682 300.282,247.958 300.431,255.000 299.347 C 259.632 298.634,260.550 298.145,260.820 296.250 C 261.179 293.717,263.000 293.145,263.000 295.566 M204.490 302.550 C 206.592 305.602,209.704 309.197,211.406 310.538 C 213.379 312.094,213.937 312.982,212.946 312.989 C 210.884 313.004,205.914 307.639,202.535 301.750 C 198.872 295.365,199.804 295.747,204.490 302.550 M396.250 299.684 C 395.563 300.886,395.018 304.261,395.040 307.184 C 395.080 312.500,395.080 312.500,396.593 309.710 C 397.509 308.021,397.987 305.059,397.803 302.210 C 397.525 297.885,397.398 297.679,396.250 299.684 M418.751 302.246 C 418.523 302.932,416.704 303.758,414.710 304.082 C 410.878 304.705,410.668 303.480,414.352 301.993 C 417.492 300.726,419.225 300.826,418.751 302.246 M407.530 316.866 C 404.958 328.315,403.975 331.119,400.995 335.500 C 399.499 337.700,395.761 343.360,392.688 348.078 C 388.088 355.141,386.342 356.984,382.801 358.507 C 380.435 359.525,378.050 360.563,377.500 360.815 C 376.950 361.068,378.661 359.120,381.302 356.487 C 383.943 353.854,386.821 350.305,387.697 348.600 C 388.573 346.895,390.799 343.938,392.645 342.029 C 394.490 340.120,396.000 338.242,396.000 337.856 C 396.000 337.470,397.171 335.761,398.603 334.060 C 400.034 332.359,401.819 328.837,402.570 326.233 L 403.934 321.500 401.217 324.965 C 399.723 326.871,395.575 331.525,392.000 335.307 C 388.425 339.090,384.522 343.783,383.326 345.736 C 382.130 347.690,380.778 349.561,380.320 349.894 C 379.862 350.227,377.465 354.461,374.993 359.302 C 372.522 364.142,369.174 369.317,367.553 370.802 C 364.641 373.468,364.626 373.470,366.292 371.000 C 367.220 369.625,369.186 366.025,370.662 363.000 C 372.138 359.975,374.347 355.925,375.571 354.000 C 376.796 352.075,378.393 348.788,379.120 346.695 C 379.847 344.603,382.851 340.328,385.796 337.195 C 398.997 323.153,401.148 320.514,404.714 313.984 C 406.796 310.170,408.667 307.541,408.872 308.141 C 409.077 308.741,408.473 312.667,407.530 316.866 M241.250 310.723 C 239.463 310.945,236.537 310.945,234.750 310.723 C 232.963 310.502,234.425 310.320,238.000 310.320 C 241.575 310.320,243.037 310.502,241.250 310.723 M264.804 328.471 C 265.095 328.762,258.396 328.955,249.917 328.900 C 240.750 328.841,235.514 328.480,237.000 328.008 C 239.650 327.169,263.906 327.572,264.804 328.471 M410.000 333.500 C 409.315 334.325,407.370 335.000,405.678 335.000 C 401.888 335.000,403.223 333.336,407.500 332.727 C 409.150 332.492,410.668 332.232,410.872 332.150 C 411.077 332.067,410.685 332.675,410.000 333.500 M374.845 340.697 C 370.326 345.344,364.363 349.000,361.303 349.000 C 360.232 349.000,361.507 347.653,364.513 345.609 C 367.256 343.744,371.525 340.248,374.000 337.841 C 379.971 332.033,380.741 334.636,374.845 340.697 M232.958 338.421 C 235.171 342.557,233.753 342.184,230.603 337.803 C 228.332 334.642,228.125 333.996,229.643 334.809 C 230.708 335.379,232.200 337.004,232.958 338.421 M252.917 336.358 C 251.874 337.255,245.007 337.797,245.537 336.941 C 245.856 336.423,247.741 336.000,249.726 336.000 C 251.710 336.000,253.146 336.161,252.917 336.358 M258.786 346.250 C 259.590 347.226,258.575 347.478,254.158 347.401 C 246.882 347.275,245.787 346.945,249.500 346.000 C 254.220 344.799,257.666 344.892,258.786 346.250 M369.051 356.580 C 367.373 359.227,366.000 361.909,366.000 362.541 C 366.000 363.173,365.038 364.547,363.863 365.595 C 362.688 366.643,360.490 370.239,358.978 373.587 C 356.490 379.099,352.178 384.000,349.818 384.000 C 349.316 384.000,350.257 382.313,351.908 380.250 C 353.559 378.188,355.646 374.700,356.546 372.500 C 357.445 370.300,359.579 367.038,361.287 365.250 C 363.678 362.748,364.002 362.000,362.696 362.000 C 361.763 362.000,361.000 361.612,361.000 361.137 C 361.000 359.962,371.007 350.674,371.617 351.283 C 371.884 351.550,370.729 353.934,369.051 356.580 M267.139 361.551 C 264.572 364.814,263.774 363.439,265.653 358.990 C 266.940 355.941,267.252 355.723,268.122 357.267 C 268.868 358.590,268.621 359.667,267.139 361.551 M140.888 364.365 C 141.743 365.395,141.652 366.439,140.517 368.615 C 139.689 370.202,139.010 372.218,139.006 373.095 C 138.997 375.479,142.626 378.349,144.713 377.608 C 145.846 377.206,145.585 377.703,144.000 378.965 C 140.940 381.402,140.117 381.447,136.973 379.354 C 133.098 376.774,132.000 374.906,132.000 370.892 C 132.000 367.992,132.609 366.712,134.750 365.115 C 138.005 362.686,139.358 362.521,140.888 364.365 M278.972 364.962 C 280.202 365.739,280.120 365.992,278.472 366.497 C 277.387 366.830,275.262 367.733,273.750 368.505 C 270.438 370.193,270.240 369.438,273.174 366.314 C 275.535 363.802,276.706 363.528,278.972 364.962 M153.068 377.127 C 153.948 378.772,153.792 378.871,151.630 378.050 C 150.297 377.543,149.009 377.324,148.769 377.564 C 148.530 377.804,148.312 377.438,148.286 376.750 C 148.260 376.063,147.890 374.657,147.464 373.626 C 146.717 371.815,146.782 371.811,149.386 373.517 C 150.868 374.489,152.525 376.113,153.068 377.127 M337.500 396.000 C 336.505 397.100,335.197 397.985,334.595 397.967 C 333.993 397.948,334.562 397.048,335.861 395.967 C 338.915 393.423,339.816 393.441,337.500 396.000 M224.034 399.034 C 227.152 402.224,227.851 403.600,225.750 402.410 C 223.611 401.199,220.000 397.692,220.000 396.826 C 220.000 395.379,220.990 395.921,224.034 399.034 M190.470 406.912 C 193.860 408.514,198.628 410.332,201.067 410.954 C 206.754 412.403,210.073 414.073,209.407 415.151 C 208.332 416.890,202.775 415.897,194.568 412.500 C 185.313 408.669,184.553 408.467,185.569 410.112 C 185.947 410.723,185.658 411.594,184.926 412.046 C 183.435 412.967,182.000 412.397,182.000 410.882 C 182.000 410.332,182.506 410.195,183.125 410.577 C 183.906 411.060,184.121 410.160,183.826 407.636 C 183.593 405.636,183.605 404.000,183.854 404.000 C 184.103 404.000,187.080 405.310,190.470 406.912 M264.500 413.031 C 266.700 413.007,273.225 412.776,279.000 412.517 L 289.500 412.046 282.500 414.049 C 271.146 417.298,263.074 418.877,260.195 418.413 C 256.047 417.745,248.002 413.806,248.648 412.760 C 248.970 412.239,251.712 412.103,254.862 412.452 C 257.963 412.795,262.300 413.055,264.500 413.031 M190.000 418.611 C 190.000 420.811,191.654 420.237,193.919 417.250 C 195.473 415.202,195.854 415.010,195.412 416.500 C 193.770 422.035,192.907 422.863,189.879 421.808 C 188.293 421.255,186.008 419.416,184.801 417.721 C 183.594 416.026,183.148 414.974,183.810 415.383 C 184.525 415.825,185.282 415.430,185.673 414.409 C 186.264 412.869,186.522 412.926,188.166 414.957 C 189.175 416.202,190.000 417.847,190.000 418.611 M244.000 416.962 C 248.253 418.259,243.688 419.381,237.686 418.514 C 234.834 418.102,230.700 417.774,228.500 417.785 C 224.696 417.805,224.647 417.767,227.500 417.021 C 231.358 416.012,240.776 415.978,244.000 416.962 " stroke="none" fill="undefined" fill-rule="evenodd"/></svg>